<?xml version="1.0" encoding="utf-8"?>
<!-- Generator: Adobe Illustrator 27.5.0, SVG Export Plug-In . SVG Version: 6.00 Build 0)  -->
<svg version="1.1" id="Layer_1" xmlns="http://www.w3.org/2000/svg" xmlns:xlink="http://www.w3.org/1999/xlink" x="0px" y="0px"
	 viewBox="0 0 3000 2000" style="enable-background:new 0 0 3000 2000;" xml:space="preserve">
<rect style="fill:#FFFFFF;" width="3000" height="2000"/>
<path style="fill:#F6F9FF;" d="M2717.304,1369.527c10.392-21.654,19.625-43.917,27.602-66.719
	c58.996-168.638,33.522-379.087-77.18-523.692c-56.148-73.343-134.621-126.483-225.578-145.298
	c-136.474-28.231-269.779,32.197-406.277,24.312c-89.13-5.149-173.65-40.284-253.93-79.346
	c-216.819-105.496-422.093-241.736-657.452-304.255c-184.465-49-402.835-38.5-559.462,80.53
	c-264.322,200.875-249.301,575.598-136.77,853.68c32.712,80.837,75.734,158.367,131.564,225.603
	c193.062,232.503,478.969,319.445,772.132,338.589c255.528,16.686,519.511,7.584,775.508-1.704
	C2364.274,1761.909,2606.579,1600.25,2717.304,1369.527z"/>
<g>
	<g>
		<path style="fill:#D4DFFF;" d="M701.056,1310.068H273.033c-12.168,0-22.032-9.864-22.032-22.032v-168.794
			c0-12.168,9.864-22.032,22.032-22.032h428.023c12.168,0,22.032,9.864,22.032,22.032v168.794
			C723.087,1300.204,713.224,1310.068,701.056,1310.068z"/>
		<path style="fill:#FFFFFF;" d="M367.225,1140.422h-83.289c-1.356,0-2.455-1.099-2.455-2.455v-15.663
			c0-1.356,1.099-2.455,2.455-2.455h83.289c1.356,0,2.455,1.099,2.455,2.455v15.663
			C369.681,1139.323,368.581,1140.422,367.225,1140.422z"/>
		<path style="fill:#B7C9F7;" d="M682.028,1140.422H386.887c-2.518,0-4.56-2.042-4.56-4.56v-11.453c0-2.518,2.042-4.56,4.56-4.56
			h295.141c2.518,0,4.56,2.042,4.56,4.56v11.453C686.588,1138.381,684.547,1140.422,682.028,1140.422z"/>
		<path style="fill:#FFFFFF;" d="M483.296,1174.696H285.229c-2.07,0-3.748-1.678-3.748-3.748v-13.077
			c0-2.07,1.678-3.748,3.748-3.748h198.067c2.07,0,3.748,1.678,3.748,3.748v13.077
			C487.044,1173.018,485.366,1174.696,483.296,1174.696z"/>
		<path style="fill:#FFFFFF;" d="M683.011,1174.696H502.903c-1.976,0-3.577-1.601-3.577-3.577v-13.418
			c0-1.976,1.602-3.577,3.577-3.577h180.108c1.976,0,3.577,1.602,3.577,3.577v13.418
			C686.588,1173.095,684.987,1174.696,683.011,1174.696z"/>
		<path style="fill:#B7C9F7;" d="M423.28,1208.97H284.628c-1.738,0-3.147-1.409-3.147-3.147v-14.278
			c0-1.738,1.409-3.147,3.147-3.147H423.28c1.738,0,3.147,1.409,3.147,3.147v14.278
			C426.427,1207.561,425.018,1208.97,423.28,1208.97z"/>
		<path style="opacity:0.2;fill:#6880E4;" d="M578.98,1208.97H440.329c-1.738,0-3.147-1.409-3.147-3.147v-14.278
			c0-1.738,1.409-3.147,3.147-3.147H578.98c1.738,0,3.147,1.409,3.147,3.147v14.278
			C582.128,1207.561,580.719,1208.97,578.98,1208.97z"/>
		<path style="fill:#FFFFFF;" d="M684.11,1208.97h-84.914c-1.369,0-2.478-1.109-2.478-2.478v-15.616
			c0-1.369,1.109-2.478,2.478-2.478h84.914c1.369,0,2.478,1.109,2.478,2.478v15.616
			C686.588,1207.861,685.479,1208.97,684.11,1208.97z"/>
		<path style="opacity:0.2;fill:#6880E4;" d="M681.327,1243.245H286.743c-2.906,0-5.262-2.356-5.262-5.261v-10.05
			c0-2.906,2.356-5.261,5.262-5.261h394.584c2.906,0,5.261,2.356,5.261,5.261v10.05
			C686.588,1240.889,684.233,1243.245,681.327,1243.245z"/>
		<path style="fill:#FFFFFF;" d="M483.296,1277.519H285.229c-2.07,0-3.748-1.678-3.748-3.748v-13.077
			c0-2.07,1.678-3.748,3.748-3.748h198.067c2.07,0,3.748,1.678,3.748,3.748v13.077
			C487.044,1275.841,485.366,1277.519,483.296,1277.519z"/>
		<path style="fill:#B7C9F7;" d="M683.084,1277.519H510.352c-1.936,0-3.505-1.569-3.505-3.505v-13.563
			c0-1.936,1.569-3.505,3.505-3.505h172.731c1.936,0,3.505,1.569,3.505,3.505v13.563
			C686.588,1275.95,685.019,1277.519,683.084,1277.519z"/>
	</g>
	<g>
		<path style="fill:#D4DFFF;" d="M588.667,1065.325H272.718c-11.994,0-21.717-9.723-21.717-21.717V493.657
			c0-11.994,9.723-21.717,21.717-21.717h315.949c11.994,0,21.717,9.723,21.717,21.717v549.952
			C610.384,1055.603,600.661,1065.325,588.667,1065.325z"/>
		<path style="fill:#B7C9F7;" d="M576.919,523.591H284.465c-2.262,0-4.096-1.834-4.096-4.096v-13.494
			c0-2.262,1.834-4.096,4.096-4.096h292.454c2.262,0,4.096,1.834,4.096,4.096v13.494
			C581.015,521.757,579.181,523.591,576.919,523.591z"/>
		<path style="fill:#F6F9FF;" d="M576.919,558.328H284.465c-2.262,0-4.096-1.834-4.096-4.096v-13.494
			c0-2.262,1.834-4.096,4.096-4.096h292.454c2.262,0,4.096,1.834,4.096,4.096v13.494
			C581.015,556.494,579.181,558.328,576.919,558.328z"/>
		<path style="opacity:0.2;fill:#6880E4;" d="M483.933,593.065H283.767c-1.877,0-3.398-1.522-3.398-3.398v-14.889
			c0-1.877,1.522-3.398,3.398-3.398h200.165c1.877,0,3.398,1.522,3.398,3.398v14.889
			C487.331,591.544,485.81,593.065,483.933,593.065z"/>
		<path style="fill:#F6F9FF;" d="M576.919,627.802H284.465c-2.262,0-4.096-1.834-4.096-4.096v-13.494
			c0-2.262,1.834-4.096,4.096-4.096h292.454c2.262,0,4.096,1.834,4.096,4.096v13.494
			C581.015,625.968,579.181,627.802,576.919,627.802z"/>
		<path style="fill:#F6F9FF;" d="M578.021,662.539H423.395c-1.653,0-2.994-1.34-2.994-2.994v-15.698c0-1.654,1.34-2.994,2.994-2.994
			h154.627c1.654,0,2.994,1.34,2.994,2.994v15.698C581.015,661.199,579.675,662.539,578.021,662.539z"/>
		<path style="opacity:0.2;fill:#6880E4;" d="M401.682,662.539H282.999c-1.453,0-2.63-1.178-2.63-2.63v-16.426
			c0-1.453,1.177-2.63,2.63-2.63h118.683c1.453,0,2.63,1.177,2.63,2.63v16.426C404.312,661.362,403.134,662.539,401.682,662.539z"/>
		<path style="fill:#F6F9FF;" d="M576.919,697.276H284.465c-2.262,0-4.096-1.834-4.096-4.096v-13.494
			c0-2.262,1.834-4.096,4.096-4.096h292.454c2.262,0,4.096,1.834,4.096,4.096v13.494
			C581.015,695.443,579.181,697.276,576.919,697.276z"/>
		<path style="fill:#F6F9FF;" d="M576.919,732.014H284.465c-2.262,0-4.096-1.834-4.096-4.096v-13.494
			c0-2.262,1.834-4.096,4.096-4.096h292.454c2.262,0,4.096,1.834,4.096,4.096v13.494
			C581.015,730.18,579.181,732.014,576.919,732.014z"/>
		<path style="opacity:0.2;fill:#6880E4;" d="M576.919,766.751H284.465c-2.262,0-4.096-1.834-4.096-4.096v-13.494
			c0-2.262,1.834-4.096,4.096-4.096h292.454c2.262,0,4.096,1.834,4.096,4.096v13.494
			C581.015,764.917,579.181,766.751,576.919,766.751z"/>
		<path style="fill:#F6F9FF;" d="M576.919,801.488H284.465c-2.262,0-4.096-1.834-4.096-4.096v-13.494
			c0-2.262,1.834-4.096,4.096-4.096h292.454c2.262,0,4.096,1.834,4.096,4.096v13.494
			C581.015,799.654,579.181,801.488,576.919,801.488z"/>
		<path style="fill:#F6F9FF;" d="M373.462,836.225h-90.786c-1.274,0-2.307-1.033-2.307-2.307v-17.072
			c0-1.274,1.033-2.307,2.307-2.307h90.786c1.274,0,2.307,1.033,2.307,2.307v17.072C375.77,835.192,374.736,836.225,373.462,836.225
			z"/>
		<path style="opacity:0.2;fill:#6880E4;" d="M510.681,836.225h-110.51c-1.403,0-2.54-1.137-2.54-2.54v-16.607
			c0-1.403,1.137-2.54,2.54-2.54h110.51c1.403,0,2.54,1.137,2.54,2.54v16.607C513.221,835.088,512.084,836.225,510.681,836.225z"/>
		<path style="fill:#F6F9FF;" d="M576.919,870.962H284.465c-2.262,0-4.096-1.834-4.096-4.096v-13.494
			c0-2.262,1.834-4.096,4.096-4.096h292.454c2.262,0,4.096,1.834,4.096,4.096v13.494
			C581.015,869.128,579.181,870.962,576.919,870.962z"/>
		<path style="fill:#B7C9F7;" d="M537.447,905.699H284.185c-2.107,0-3.816-1.708-3.816-3.816v-14.055
			c0-2.107,1.708-3.816,3.816-3.816h253.262c2.107,0,3.816,1.708,3.816,3.816v14.055
			C541.262,903.991,539.554,905.699,537.447,905.699z"/>
		<path style="fill:#F6F9FF;" d="M576.919,940.437H284.465c-2.262,0-4.096-1.834-4.096-4.096v-13.494
			c0-2.262,1.834-4.096,4.096-4.096h292.454c2.262,0,4.096,1.834,4.096,4.096v13.494
			C581.015,938.603,579.181,940.437,576.919,940.437z"/>
		<path style="opacity:0.2;fill:#6880E4;" d="M395.073,975.174H282.927c-1.413,0-2.558-1.145-2.558-2.558v-16.57
			c0-1.413,1.145-2.558,2.558-2.558h112.146c1.413,0,2.558,1.145,2.558,2.558v16.57
			C397.631,974.028,396.486,975.174,395.073,975.174z"/>
		<path style="fill:#B7C9F7;" d="M577.922,975.174H412.581c-1.709,0-3.094-1.385-3.094-3.094v-15.498
			c0-1.709,1.385-3.094,3.094-3.094h165.341c1.709,0,3.094,1.385,3.094,3.094v15.498
			C581.015,973.788,579.63,975.174,577.922,975.174z"/>
		<path style="fill:#F6F9FF;" d="M576.919,1009.911H284.465c-2.262,0-4.096-1.834-4.096-4.096v-13.494
			c0-2.262,1.834-4.096,4.096-4.096h292.454c2.262,0,4.096,1.834,4.096,4.096v13.494
			C581.015,1008.077,579.181,1009.911,576.919,1009.911z"/>
		<path style="fill:#F6F9FF;" d="M576.919,1044.648H284.465c-2.262,0-4.096-1.834-4.096-4.096v-13.494
			c0-2.262,1.834-4.096,4.096-4.096h292.454c2.262,0,4.096,1.834,4.096,4.096v13.494
			C581.015,1042.814,579.181,1044.648,576.919,1044.648z"/>
	</g>
</g>
<g>
	<defs>
		<path id="XMLID_84_" d="M2480.281,1483.608c2.302-3.979,4.518-8,6.648-12.049c64.812-123.235,102.06-260.869,108.246-399.97
			c-66.715,61.211-133.835,124.308-190.345,195.049c-43.175,54.047-80.218,114.047-103.758,178.836
			c41.463-153.145,63.228-312.137,58.793-470.549c-157.563,218.654-263.557,473.61-309.119,739.241l368.219-4.164
			c135.444-80.624,240.734-210.657,291.422-359.909C2626.128,1378.525,2546.601,1424.034,2480.281,1483.608z"/>
	</defs>
	<use xlink:href="#XMLID_84_"  style="overflow:visible;fill:#EAF2FC;"/>
	<clipPath id="XMLID_00000051342148164356860020000006464250480315248521_">
		<use xlink:href="#XMLID_84_"  style="overflow:visible;"/>
	</clipPath>
	<path style="clip-path:url(#XMLID_00000051342148164356860020000006464250480315248521_);fill:#6880E4;" d="M2264.105,1704.072
		l0.888-1.781c13.165-26.393,322.782-646.767,355.177-679.162c0.432-0.43,1.127-0.43,1.559,0c0.43,0.431,0.43,1.128,0,1.559
		c-31.291,31.29-334.822,638.651-353.854,676.767c54.48-7.312,170.444-101.422,258.693-179.632
		c96.914-85.89,182.188-171.649,183.037-172.506c0.43-0.432,1.127-0.434,1.559-0.006c0.432,0.429,0.435,1.127,0.006,1.559
		c-0.851,0.856-86.167,86.659-183.133,172.595c-56.962,50.483-106.743,91.137-147.961,120.832
		c-51.645,37.208-89.996,57.255-113.989,59.584L2264.105,1704.072z"/>
	<path style="clip-path:url(#XMLID_00000051342148164356860020000006464250480315248521_);fill:#6880E4;" d="M2178.58,1733.361
		c-0.599,0-1.09-0.479-1.102-1.08c-0.807-41.112,29.457-181.091,89.949-416.048c45.045-174.959,90.917-339.957,91.375-341.604
		c0.163-0.587,0.773-0.929,1.356-0.766c0.587,0.163,0.93,0.771,0.767,1.357c-0.458,1.646-46.325,166.627-91.364,341.565
		c-41.555,161.399-90.879,364.492-89.88,415.452c0.012,0.608-0.472,1.111-1.08,1.123
		C2178.595,1733.361,2178.587,1733.361,2178.58,1733.361z"/>
</g>
<g>
	
		<rect x="816.989" y="1169.974" transform="matrix(0.7125 0.7017 -0.7017 0.7125 1087.1837 -263.1668)" style="fill:#1C056D;" width="95.502" height="50.318"/>
	<g>
		<defs>
			<circle id="XMLID_83_" cx="1186.704" cy="870.054" r="376.656"/>
		</defs>
		<use xlink:href="#XMLID_83_"  style="overflow:visible;fill:#EAF2FC;"/>
		<clipPath id="XMLID_00000165208360492455282990000008378413074785877646_">
			<use xlink:href="#XMLID_83_"  style="overflow:visible;"/>
		</clipPath>
		<path style="opacity:0.2;clip-path:url(#XMLID_00000165208360492455282990000008378413074785877646_);fill:#6880E4;" d="
			M896.759,1034.894c-72.751-9.926-138.744,0.3-138.838,0c-0.222-0.71-1.929-264.017-1.929-264.017l555.423,24.105l-502.755-77.845
			l104.118-219.263l704.009,135.651l-48.057,379.193h-287.497l285.875,34.064l-93.638,180.35l-535.537,4.77L800.76,1071.66
			l316.953-22.318C1117.713,1049.342,996.294,1048.474,896.759,1034.894z"/>
	</g>
	<g>
		<path style="fill:#1B3D9E;" d="M876.643,1184.909c-42.495-41.848-75.53-90.784-98.187-145.451
			c-21.878-52.784-33.194-108.64-33.634-166.016c-0.44-57.375,10.018-113.397,31.083-166.51
			c21.817-55.009,54.097-104.446,95.944-146.94c41.848-42.495,90.784-75.53,145.451-98.187
			c52.784-21.878,108.639-33.194,166.015-33.635c57.375-0.44,113.398,10.018,166.511,31.084
			c55.008,21.816,104.445,54.096,146.94,95.944s75.53,90.784,98.187,145.451c21.878,52.784,33.194,108.639,33.635,166.015
			c0.439,57.375-10.019,113.398-31.084,166.511c-21.816,55.008-54.096,104.445-95.944,146.94
			c-41.847,42.494-90.783,75.529-145.451,98.187c-52.784,21.878-108.64,33.194-166.014,33.634
			c-57.376,0.44-113.399-10.018-166.512-31.083C968.575,1259.038,919.138,1226.757,876.643,1184.909z M1447.849,604.872
			c-70.833-69.755-164.59-107.749-263.999-106.987c-99.41,0.763-192.573,40.191-262.327,111.024
			c-69.754,70.832-107.749,164.59-106.987,263.999c0.763,99.41,40.191,192.572,111.024,262.327
			c70.833,69.755,164.59,107.749,263.999,106.987c99.41-0.763,192.573-40.192,262.327-111.024
			c69.755-70.833,107.75-164.59,106.987-263.999S1518.682,674.627,1447.849,604.872z"/>
	</g>
	<path style="fill:#1B3D9E;" d="M592.365,1539.267l-65.676-64.676c-12.023-11.84-12.172-31.186-0.332-43.209l252.194-256.093
		c11.84-12.023,31.185-12.172,43.209-0.332l65.676,64.676c12.023,11.84,12.172,31.186,0.331,43.209l-252.194,256.093
		C623.734,1550.958,604.388,1551.107,592.365,1539.267z"/>
	<path style="fill:#1C056D;" d="M1186.625,1280.299c-52.156,0-103.061-9.705-151.373-28.867
		c-51.048-20.246-96.94-50.215-136.4-89.074c-39.46-38.859-70.129-84.285-91.157-135.018c-20.31-49-30.814-100.859-31.223-154.139
		c-0.409-53.28,9.299-105.294,28.854-154.6c20.247-51.048,50.216-96.94,89.075-136.4c38.859-39.46,84.286-70.129,135.018-91.157
		c49-20.31,100.86-30.814,154.139-31.223c53.276-0.417,105.294,9.299,154.6,28.855c51.048,20.247,96.94,50.216,136.4,89.075
		c39.46,38.859,70.13,84.286,91.157,135.018c20.309,48.999,30.813,100.859,31.223,154.139c0.409,53.279-9.3,105.294-28.854,154.6
		c-20.246,51.049-50.216,96.94-89.075,136.4l-1.813-1.785l1.813,1.785c-38.859,39.46-84.286,70.13-135.018,91.156
		c-49,20.31-100.86,30.814-154.139,31.224C1188.778,1280.295,1187.697,1280.299,1186.625,1280.299z M1186.786,464.898
		c-1.065,0-2.123,0.004-3.189,0.012c-52.621,0.403-103.838,10.778-152.23,30.835c-50.099,20.765-94.961,51.055-133.34,90.026
		c-38.379,38.972-67.976,84.293-87.97,134.706c-19.313,48.693-28.9,100.064-28.497,152.685
		c0.404,52.621,10.778,103.838,30.835,152.229c20.765,50.1,51.054,94.962,90.026,133.341c38.972,38.378,84.293,67.976,134.706,87.97
		c48.694,19.312,100.064,28.869,152.685,28.496c52.621-0.403,103.838-10.778,152.23-30.835
		c50.099-20.766,94.961-51.055,133.34-90.026c38.378-38.973,67.976-84.294,87.97-134.706c19.313-48.693,28.9-100.064,28.496-152.685
		c-0.403-52.621-10.778-103.838-30.835-152.23c-20.766-50.099-51.055-94.961-90.026-133.34
		c-38.972-38.379-84.293-67.976-134.706-87.97C1288.575,474.485,1238.29,464.898,1186.786,464.898z"/>
	<path style="fill:#1C056D;" d="M636.186,1528.575l-99.479-97.964c-4.828-4.755-4.888-12.523-0.133-17.35l7.876-7.998
		c4.754-4.828,12.523-4.887,17.351-0.133l99.479,97.964c4.828,4.755,4.888,12.523,0.133,17.35l-7.876,7.998
		C648.782,1533.27,641.014,1533.329,636.186,1528.575z"/>
</g>
<ellipse style="fill:#D4DFFF;" cx="1647.066" cy="1710.827" rx="936.683" ry="76.435"/>
<g>
	<path style="fill:#D40221;" d="M1789.594,932.119c0,0-41.501,49.411-64.297,131.987c-21.048,76.244-82.419,357.725-82.419,357.725
		h157.456L1789.594,932.119z"/>
	<g>
		<path style="fill:#1B3D9E;" d="M1180.806,1566.134c0,0-28.246-1.026-42.8,15.048c-14.009,15.471-17.649,57.941,3.89,88.884
			c0,0,15.084,16.074,37.583,22.711c0,0-19.193-44.566-18.437-74.796C1161.798,1587.751,1180.806,1566.134,1180.806,1566.134z"/>
		<path style="fill:#1C056D;" d="M1161.991,1673.954c-23.92-38.636-17.229-111.5,18.815-107.82
			c51.957,5.305,187.775,47.932,187.775,47.932l7.996,87.315c0,0-121.122,6.234-193.672-7.586
			C1173.112,1691.929,1167.147,1682.283,1161.991,1673.954z"/>
		<path style="fill:#FE8E9C;" d="M1366.175,1622.265c0,0-58.857-18.448-65.006,0c-6.149,18.448-1.421,51.538,14.392,61.201
			c15.812,9.663,54.985,3.626,54.985,3.626L1366.175,1622.265z"/>
	</g>
	<path style="fill:#1C056D;" d="M1509.835,1449.232c0,0-71.366-9.163-105.894,57.147c-31.848,61.164-1.847,163.456,125.593,174.537
		c127.44,11.082,478.361-17.546,478.361-17.546v-189.487L1509.835,1449.232z"/>
	<g>
		<defs>
			<path id="XMLID_82_" d="M2177.145,1462.84c0,0,115.777,49.364,60.329,197.989c-52.237,140.018-863.959,74.084-868.325,62.101
				c-5.256-14.426-21.427-129.003-4.568-135.712c16.86-6.709,622.268-129.317,622.268-129.317L2177.145,1462.84z"/>
		</defs>
		<use xlink:href="#XMLID_82_"  style="overflow:visible;fill:#1B3D9E;"/>
		<clipPath id="XMLID_00000085238104590897599870000005759602849815229622_">
			<use xlink:href="#XMLID_82_"  style="overflow:visible;"/>
		</clipPath>
		<path style="opacity:0.47;clip-path:url(#XMLID_00000085238104590897599870000005759602849815229622_);fill:#1C056D;" d="
			M1762.566,1485.649c0,0,150.162,37.6,280.363,29.738s190.894-34.669,190.894-34.669l-32.112-31.486l-418.125,8.67
			L1762.566,1485.649z"/>
		<path style="clip-path:url(#XMLID_00000085238104590897599870000005759602849815229622_);fill:#1C056D;" d="M1357.1,1657.354
			c-1.331,0-2.423-1.063-2.453-2.4c-0.03-1.355,1.044-2.479,2.399-2.509c1.816-0.04,183.932-4.193,385.822-17.157
			c267.012-17.146,447.169-41.848,520.995-71.432c1.258-0.506,2.688,0.107,3.191,1.365c0.505,1.259-0.106,2.688-1.365,3.191
			c-41.514,16.636-115.146,31.659-218.853,44.651c-82.848,10.379-185.017,19.505-303.67,27.124
			c-201.991,12.971-384.195,17.125-386.012,17.165C1357.137,1657.353,1357.118,1657.354,1357.1,1657.354z"/>
	</g>
	<g>
		<g>
			<defs>
				<path id="XMLID_81_" d="M2038.694,815.838c0,0,130.511,54.581,168.918,133.224c38.407,78.643-98.761,486.491-124.366,493.806
					c-25.605,7.316-290.797,12.802-310.915,0s-10.171-472.343,17.263-510.75c27.434-38.407,131.024-116.281,131.024-116.281
					H2038.694z"/>
			</defs>
			<use xlink:href="#XMLID_81_"  style="overflow:visible;fill:#FC476A;"/>
			<clipPath id="XMLID_00000054236713838507287730000003546964101768609929_">
				<use xlink:href="#XMLID_81_"  style="overflow:visible;"/>
			</clipPath>
			<path style="clip-path:url(#XMLID_00000054236713838507287730000003546964101768609929_);fill:#FE8E9C;" d="M1964.504,1061.3
				c-0.003-1.431,1.136-2.598,2.567-2.624c15.337-0.278,94.234-1.502,99.376,2.662c5.697,4.614-1.554,133.815-10.782,134.474
				c-9.229,0.659-85.694,4.614-88.331-1.978C1964.918,1187.797,1964.549,1079.466,1964.504,1061.3z"/>
		</g>
		<g>
			<g>
				<g>
					<g>
						<defs>
							<path id="XMLID_80_" d="M1985.766,543.427c-17.123-18.228-77.223-36.117-124.431-24.812
								c-26.612,6.373-46.531,28.541-50.989,55.54c-5.55,33.612-10.566,67.394-12.76,101.415
								c-1.832,28.408-5.069,65.22,9.594,91.099c9.638,17.008,33.771,18.326,51.109,18.612c2.886,0.048,30.261-2.734,29.614-6.533
								c6.231,36.572,27.877,119.462,31.593,130.507c5.223,15.523,107.453-42.999,123.826-63.404
								c16.373-20.406-74.875-139.399-74.875-139.399C1977.453,681.039,2009.589,568.788,1985.766,543.427z"/>
						</defs>
						<use xlink:href="#XMLID_80_"  style="overflow:visible;fill:#FE8E9C;"/>
						<clipPath id="XMLID_00000116946195025769613110000001081191317243714957_">
							<use xlink:href="#XMLID_80_"  style="overflow:visible;"/>
						</clipPath>
					</g>
					<path style="fill:#E57492;" d="M1860.005,610.341c0,0-39.588,55.91-30.493,61.572c9.095,5.662,37.319-8.272,37.319-8.272l0,0
						c-0.217,3.937-2.731,7.371-6.418,8.771c-10.673,4.053-31.408,11.013-36.08,2.533
						C1816.122,660.043,1860.005,610.341,1860.005,610.341z"/>
					<path style="fill:#E57492;" d="M1887.903,778.748c0,0,24.397-15.183,37.975-33.4c0,0,7.71,56.266-28.235,79.352
						L1887.903,778.748z"/>
				</g>
				<g>
					<defs>
						<path id="XMLID_79_" d="M2011.909,526.879c20.776,10.756,49.705,56.389,30.504,93.779
							c-21.47,41.81-67.754,84.803-73.966,85.794c-6.211,0.992-14.558-48.615-14.558-48.615
							c44.802-8.928,24.442-52.973,17.432-52.699c-7.009,0.274-20.948,29.135-25.142,23.738c-3.214-4.136,1.632-49.177,4.073-70.009
							c0,0-94.345,58.327-155.615,35.415c0,0-29.847-100.957,59.475-121.38C1943.435,452.48,2011.909,526.879,2011.909,526.879z"/>
					</defs>
					<use xlink:href="#XMLID_79_"  style="overflow:visible;fill:#1B3D9E;"/>
					<clipPath id="XMLID_00000029746066720045980600000002501953721718615992_">
						<use xlink:href="#XMLID_79_"  style="overflow:visible;"/>
					</clipPath>
					<path style="opacity:0.5;clip-path:url(#XMLID_00000029746066720045980600000002501953721718615992_);fill:#1C056D;" d="
						M1782.208,573.264c8.517-0.199,115.94-22.517,124.564-24.434c8.624-1.916-11.019,20.601,1.437,15.81
						c12.456-4.791,55.096-19.164,56.533-16.768c1.437,2.395-18.562,81.004-18.562,81.004s-8.746-57.05-10.183-56.571
						c-1.437,0.479-80.487,43.597-109.233,44.076c-28.745,0.479-40.244-3.833-42.639-19.643
						C1781.729,580.93,1782.208,573.264,1782.208,573.264z"/>
				</g>
			</g>
			<path style="fill:#1C056D;" d="M1890.127,694.107l-13.464-4.308c-0.841-0.266-1.724,0.193-1.989,1.024
				c-0.267,0.833,0.192,1.723,1.024,1.988l4.696,1.503c-5.042,29.251-56.52,27.897-57.034,27.877
				c-0.864-0.077-1.605,0.655-1.633,1.528c-0.029,0.873,0.655,1.604,1.528,1.633c0.111,0.005,0.732,0.023,1.767,0.023
				c4.122,0,14.81-0.301,26.054-3.062c18.725-4.597,29.882-13.942,32.344-27.031l5.741,1.837c0.161,0.051,0.323,0.076,0.482,0.076
				c0.671,0,1.292-0.428,1.506-1.1C1891.419,695.263,1890.96,694.373,1890.127,694.107z"/>
			<path style="fill:#FFFFFF;" d="M1958.386,611.84l-30.524,2.091c-1.322-14.587-13.569-26.021-28.502-26.021
				c-11.847,0-22.012,7.195-26.367,17.454c-10.395-6.035-18.533-3.911-22.97-1.661c-2.027-13.828-13.904-24.457-28.296-24.457
				c-15.814,0-28.634,12.82-28.634,28.634c0,15.815,12.819,28.634,28.634,28.634c15.432,0,27.978-12.217,28.577-27.502
				c2.303-1.704,9.956-6.028,21.201,0.993c-0.492,2.104-0.779,4.285-0.779,6.539c0,15.814,12.82,28.634,28.634,28.634
				c15.091,0,27.426-11.682,28.526-26.492l30.825-2.112c1.307-0.09,2.294-1.222,2.205-2.529
				C1960.826,612.736,1959.667,611.744,1958.386,611.84z"/>
		</g>
		<path style="fill:#FFFFFF;" d="M1926.573,911.752l19.223,29.063c10.02,15.15,31.284,17.683,44.518,5.242
			c30.598-28.765,75.945-79.82,65.933-122.146l-17.552-8.073C2038.694,815.838,1982.833,898.41,1926.573,911.752z"/>
		<path style="fill:#FFFFFF;" d="M1919.497,909.255l-23.634,18.706c-11.563,9.152-28.756,2.364-30.833-12.236
			c-3.218-22.623-4.093-52.908,8.221-74.793l25.021-13.555L1919.497,909.255z"/>
		<g>
			
				<ellipse transform="matrix(0.7071 -0.7071 0.7071 0.7071 -142.0735 1644.6785)" style="fill:#D40221;" cx="1914.266" cy="993.837" rx="12.307" ry="12.307"/>
			<circle style="fill:#D40221;" cx="1911.031" cy="1084.591" r="12.307"/>
			<circle style="fill:#D40221;" cx="1906.3" cy="1175.345" r="12.307"/>
			<circle style="fill:#D40221;" cx="1901.959" cy="1266.098" r="12.307"/>
			<circle style="fill:#D40221;" cx="1901.959" cy="1356.852" r="12.307"/>
		</g>
	</g>
	<path style="fill:#FC476A;" d="M2207.612,949.062c0,0,102.601,238.589,91.67,364.268c-7.908,90.93-408.049,149.51-408.049,149.51
		l-44.357-71.496l296.7-145.231C2143.577,1246.113,2028.888,988.508,2207.612,949.062z"/>
	<path style="fill:#D40221;" d="M1942.485,1344.546l201.092-98.432c0,0-50.708-104.577-40.028-173.829
		c0,0-27.334,102.086,16.74,163.238C2120.289,1235.522,1946.194,1335.631,1942.485,1344.546z"/>
	<path style="fill:#D40221;" d="M2207.612,949.062c0,0-83.405-17.63-104.063,123.222c0,0-7.967-133.835,94.179-140.165
		L2207.612,949.062z"/>
	<path style="fill:#D40221;" d="M2098.647,1420.532l-122.256,25.545c0,0,92.169,2.207,106.855-3.208
		C2083.246,1442.869,2095.831,1432.015,2098.647,1420.532z"/>
	<g>
		<g>
			<defs>
				<path id="XMLID_78_" d="M1490.61,1445.116c0,0,695.749-15.146,699.499-8.215c3.75,6.932,2.466,31.52-4.181,32.675
					c-6.647,1.155-678.95,15.556-688.192,9.779C1488.493,1473.58,1490.61,1445.116,1490.61,1445.116z"/>
			</defs>
			<use xlink:href="#XMLID_78_"  style="overflow:visible;fill:#1B3D9E;"/>
			<clipPath id="XMLID_00000177442534199549045080000005821599557806165675_">
				<use xlink:href="#XMLID_78_"  style="overflow:visible;"/>
			</clipPath>
			<path style="clip-path:url(#XMLID_00000177442534199549045080000005821599557806165675_);fill:#1C056D;" d="M1934.028,1427.63
				c0,0,3.532,51.715,0,53.087c-3.532,1.372-431.981,9.941-443.627,4.429c-11.647-5.512-15.709-43.09-7.477-45.659
				C1491.156,1436.917,1934.028,1427.63,1934.028,1427.63"/>
		</g>
		<path style="fill:#6880E4;" d="M1312.746,1170.817c-1.297-2.777,0.718-5.963,3.783-5.996
			c55.341-0.594,449.281-4.591,461.879,1.777c13.551,6.849,162.24,268.324,155.391,272.89c-6.849,4.566-428.553,11.28-443.189,5.63
			C1464.406,1435,1340.516,1230.288,1312.746,1170.817z"/>
		
			<ellipse transform="matrix(0.7968 -0.6042 0.6042 0.7968 -467.8879 1254.3195)" style="fill:#FFFFFF;" cx="1631.018" cy="1322.83" rx="31.165" ry="35.556"/>
	</g>
</g>
<g>
	<g>
		<path style="fill:#FFFFFF;" d="M747.208,846.534c-32.965,0-59.784-26.819-59.784-59.784v-144.96
			c0-32.965,26.819-59.784,59.784-59.784h360.413c32.965,0,59.784,26.819,59.784,59.784v144.96
			c0,32.965-26.819,59.784-59.784,59.784H747.208z"/>
		<path style="fill:#68A9FD;" d="M1107.621,826.266H747.208c-21.824,0-39.516-17.692-39.516-39.516V641.789
			c0-21.824,17.692-39.516,39.516-39.516h360.413c21.824,0,39.516,17.692,39.516,39.516V786.75
			C1147.138,808.574,1129.446,826.266,1107.621,826.266z"/>
		<g>
			<path style="fill:#FFFFFF;" d="M820.038,671.962c0.37-1.724,1.14-3.034,2.31-3.928c1.169-0.892,2.449-1.354,3.836-1.386
				c1.386-0.03,2.694,0.356,3.927,1.155c1.232,0.801,2.094,2.033,2.588,3.697c1.664,14.664,2.819,29.173,3.465,43.528
				c0.647,14.356,1.001,28.926,1.063,43.712c-0.062,1.356-0.432,2.481-1.109,3.374c-0.679,0.894-1.525,1.557-2.542,1.987
				c-1.017,0.43-2.125,0.647-3.327,0.647c-1.201,0-2.326-0.231-3.373-0.693c-1.048-0.462-1.941-1.123-2.68-1.987
				c-0.739-0.862-1.201-1.971-1.386-3.327c-0.062-6.961,0.061-13.784,0.37-20.47c0.308-6.685,0.308-13.507,0-20.47
				c-0.309,0.124-0.646,0.247-1.017,0.37c-0.37,0.124-0.771,0.247-1.201,0.37c-3.451-0.061-6.778-0.215-9.981-0.462
				c-3.204-0.246-6.377-0.431-9.519-0.555c-3.143-0.122-6.3-0.092-9.473,0.092c-3.174,0.185-6.423,0.647-9.75,1.386l-0.924,36.966
				c-0.124,2.033-0.786,3.543-1.987,4.528c-1.201,0.986-2.527,1.479-3.974,1.479c-1.449,0-2.819-0.493-4.113-1.479
				c-1.294-0.985-2.065-2.463-2.311-4.436v-84.099c0.37-1.724,1.14-2.987,2.311-3.789c1.17-0.8,2.449-1.186,3.835-1.155
				c1.386,0.032,2.711,0.494,3.974,1.386c1.262,0.894,2.14,2.172,2.634,3.836l0.555,34.102c3.388-0.615,6.669-0.985,9.842-1.109
				c3.172-0.122,6.331-0.106,9.473,0.046c3.142,0.155,6.314,0.356,9.518,0.601c3.203,0.247,6.53,0.401,9.981,0.462
				c0.246,0.124,0.462,0.201,0.647,0.231c0.185,0.032,0.4,0.108,0.647,0.231c-0.37-6.1-0.693-11.906-0.97-17.42
				C821.101,683.869,820.653,678.062,820.038,671.962z"/>
			<path style="fill:#FFFFFF;" d="M852.476,680.095c-1.726-0.246-3.081-0.832-4.066-1.756c-0.986-0.924-1.557-1.956-1.71-3.096
				c-0.154-1.139,0.123-2.278,0.832-3.419c0.708-1.139,1.895-2.017,3.558-2.634c6.407-0.8,12.199-1.324,17.375-1.571
				c5.175-0.246,10.226-0.354,15.156-0.324c4.928,0.032,9.995,0.155,15.202,0.37c5.206,0.217,11.012,0.355,17.42,0.416
				c1.664,0.494,2.895,1.279,3.697,2.356c0.8,1.079,1.186,2.204,1.155,3.373c-0.032,1.171-0.494,2.25-1.386,3.234
				c-0.894,0.986-2.203,1.664-3.927,2.033c-2.588,0-4.898,0.016-6.931,0.046c-2.033,0.032-4.02,0.063-5.961,0.093
				c-1.941,0.032-3.928,0.078-5.961,0.139c-2.033,0.062-4.344,0.092-6.931,0.092c0.06,6.469,0.107,12.892,0.139,19.268
				c0.03,6.377,0.107,12.723,0.231,19.038c0.123,6.316,0.308,12.661,0.555,19.038c0.245,6.377,0.647,12.8,1.201,19.269
				c-0.062,1.726-0.632,3.174-1.709,4.343c-1.079,1.171-2.311,1.973-3.697,2.403c-1.386,0.432-2.789,0.401-4.205-0.092
				c-1.418-0.493-2.495-1.54-3.234-3.142c-0.617-6.654-0.97-13.322-1.063-20.008c-0.092-6.684-0.078-13.368,0.046-20.054
				c0.122-6.684,0.292-13.368,0.508-20.054c0.215-6.684,0.323-13.354,0.323-20.008c-2.772,0.062-5.207,0.062-7.301,0
				c-2.095-0.061-4.112-0.107-6.053-0.139c-1.94-0.03-3.943,0-6.007,0.092C857.665,679.494,855.248,679.725,852.476,680.095z"/>
			<path style="fill:#FFFFFF;" d="M984.445,755.044c-1.294,2.218-2.588,3.558-3.881,4.02c-1.294,0.462-2.481,0.462-3.558,0
				c-1.079-0.462-1.987-1.17-2.727-2.126c-0.739-0.955-1.233-1.74-1.479-2.357c-1.109-2.587-2.172-5.621-3.188-9.103
				c-1.016-3.48-2.002-7.162-2.957-11.043c-0.956-3.881-1.941-7.87-2.958-11.968c-1.017-4.097-2.065-8.055-3.142-11.875
				c-1.079-3.819-2.218-7.408-3.419-10.767c-1.201-3.357-2.511-6.268-3.927-8.733c-1.479,5.36-2.634,10.752-3.466,16.172
				c-0.832,5.422-1.51,10.859-2.033,16.312c-0.524,5.453-0.986,10.891-1.386,16.312c-0.401,5.422-0.94,10.813-1.617,16.173
				c-0.309,2.218-1.002,3.851-2.079,4.898c-1.079,1.048-2.31,1.587-3.696,1.617c-1.386,0.032-2.772-0.43-4.159-1.386
				c-1.386-0.955-2.511-2.357-3.374-4.205c0.246-7.578,0.8-15.279,1.664-23.104c0.862-7.823,1.863-15.401,3.003-22.734
				c1.14-7.332,2.325-14.247,3.558-20.748c1.232-6.5,2.311-12.153,3.235-16.958c0.554-1.354,1.493-2.417,2.818-3.188
				c1.324-0.77,2.757-1.216,4.297-1.34c1.54-0.122,3.034,0.046,4.482,0.508c1.447,0.462,2.509,1.248,3.188,2.357
				c3.512,4.745,6.454,9.828,8.826,15.249c2.371,5.422,4.358,10.813,5.961,16.173c1.602,5.36,2.941,10.489,4.02,15.387
				c1.077,4.898,2.14,9.195,3.188,12.892c1.354-5.852,2.972-11.644,4.852-17.374c1.878-5.729,3.743-11.136,5.591-16.219
				c1.849-5.083,3.558-9.704,5.129-13.862c1.571-4.159,2.694-7.593,3.373-10.305c0.37-1.417,1.139-2.648,2.31-3.696
				c1.169-1.047,2.449-1.71,3.835-1.987c1.386-0.277,2.71-0.107,3.974,0.508c1.262,0.617,2.171,1.849,2.726,3.697
				c1.109,7.517,2.387,14.864,3.835,22.041c1.447,7.178,2.879,14.248,4.297,21.209c1.417,6.963,2.74,13.894,3.974,20.794
				c1.232,6.901,2.125,13.802,2.68,20.701c0.185,2.033-0.263,3.59-1.34,4.667c-1.079,1.079-2.326,1.649-3.743,1.71
				c-1.418,0.062-2.819-0.384-4.205-1.34c-1.386-0.954-2.296-2.479-2.726-4.574c-1.233-5.421-2.388-10.705-3.466-15.85
				c-1.079-5.144-2.079-10.258-3.003-15.341c-0.924-5.083-1.771-10.212-2.542-15.387c-0.771-5.175-1.464-10.504-2.079-15.988
				c-1.356,4.868-2.65,9.75-3.881,14.648c-1.233,4.898-2.542,9.828-3.928,14.787c-1.386,4.96-2.958,9.997-4.713,15.11
				C988.835,744.54,986.786,749.746,984.445,755.044z"/>
			<path style="fill:#FFFFFF;" d="M1043.869,673.533c0.37-1.724,1.202-2.988,2.496-3.789c1.293-0.8,2.71-1.17,4.251-1.109
				c1.539,0.062,3.003,0.554,4.39,1.478c1.386,0.924,2.325,2.218,2.819,3.881c0,6.901-0.062,13.555-0.185,19.962
				c-0.124,6.408-0.263,12.769-0.416,19.084c-0.155,6.316-0.293,12.692-0.416,19.13c-0.124,6.439-0.217,13.108-0.277,20.008
				c3.45,0.494,7.13,0.802,11.044,0.924c3.912,0.124,7.885,0.17,11.921,0.139c4.035-0.03,8.008-0.107,11.922-0.231
				c3.912-0.123,7.624-0.185,11.136-0.185c1.664,0.494,2.896,1.279,3.697,2.356c0.8,1.079,1.186,2.204,1.155,3.374
				c-0.032,1.171-0.494,2.249-1.386,3.234c-0.894,0.986-2.204,1.664-3.928,2.033c-3.881,0-8.072,0.123-12.568,0.37
				c-4.498,0.246-9.057,0.43-13.678,0.555c-4.621,0.122-9.165,0.139-13.631,0.046c-4.468-0.092-8.61-0.416-12.43-0.97
				c-1.418,0.308-2.789-0.015-4.113-0.97c-1.326-0.955-2.141-2.542-2.449-4.76c0-7.269,0.03-14.401,0.092-21.394
				c0.061-6.992,0.139-13.955,0.231-20.886s0.169-13.893,0.231-20.886C1043.837,687.935,1043.869,680.804,1043.869,673.533z"/>
		</g>
	</g>
	<g>
		<path style="fill:#FFFFFF;" d="M1234.647,1008.2c-21.2,0-38.447-17.247-38.447-38.447V857.127c0-21.2,17.247-38.447,38.447-38.447
			h254.279c21.199,0,38.446,17.247,38.446,38.447v112.626c0,21.2-17.247,38.447-38.446,38.447H1234.647z"/>
		<path style="fill:#68A9FD;" d="M1488.927,992.144h-254.279c-12.366,0-22.391-10.025-22.391-22.391V857.127
			c0-12.366,10.025-22.391,22.391-22.391h254.279c12.366,0,22.391,10.025,22.391,22.391v112.626
			C1511.318,982.12,1501.293,992.144,1488.927,992.144z"/>
		<g>
			<path style="fill:#FFFFFF;" d="M1267.148,887.972c-1.367-0.195-2.441-0.659-3.222-1.391c-0.781-0.732-1.232-1.548-1.355-2.452
				c-0.122-0.901,0.097-1.805,0.66-2.708c0.56-0.903,1.5-1.599,2.818-2.087c2.001-0.147,4.21-0.342,6.626-0.586
				c2.416-0.243,4.831-0.401,7.247-0.475c2.416-0.074,4.746,0.013,6.991,0.256c2.245,0.245,4.197,0.757,5.858,1.538
				c1.317,0.927,2.134,2.013,2.452,3.258c0.317,1.243,0.281,2.367-0.11,3.366c-0.392,1.002-1.099,1.722-2.123,2.161
				c-1.025,0.439-2.27,0.318-3.735-0.367c-1.171-0.536-2.781-0.804-4.831-0.804c0.243,2.733,0.572,5.736,0.988,9.005
				c0.414,3.271,0.817,6.675,1.209,10.212c0.389,3.539,0.695,7.114,0.914,10.726s0.257,7.126,0.11,10.541
				c-0.146,3.416-0.549,6.651-1.207,9.701c-0.659,3.051-1.673,5.772-3.039,8.163c-1.025,1.758-2.441,3.161-4.246,4.21
				c-1.806,1.049-3.796,1.781-5.966,2.195c-2.173,0.416-4.442,0.538-6.809,0.367s-4.649-0.586-6.844-1.245
				c-2.197-0.659-4.21-1.537-6.04-2.636c-1.831-1.098-3.283-2.379-4.357-3.843c-0.829-1.123-1.463-2.368-1.902-3.733
				c-0.441-1.366-0.77-2.783-0.989-4.246c-0.22-1.464-0.354-2.916-0.403-4.357c-0.049-1.438-0.097-2.818-0.146-4.136
				c0.293-1.366,0.916-2.378,1.867-3.037c0.952-0.66,1.988-0.989,3.111-0.989c1.123,0,2.197,0.342,3.221,1.025
				c1.025,0.684,1.732,1.684,2.123,3.001c0.049,1.954,0.038,3.625-0.036,5.016c-0.074,1.391,0.036,2.598,0.329,3.624
				s0.88,1.928,1.758,2.709c0.878,0.781,2.317,1.537,4.32,2.269c4.147,1.416,7.344,1.416,9.589,0
				c2.245-1.416,3.807-4.294,4.687-8.639c0.682-3.366,1.024-6.954,1.024-10.761c0-3.807-0.171-7.662-0.513-11.568
				c-0.342-3.904-0.768-7.808-1.281-11.712c-0.513-3.904-0.914-7.662-1.207-11.275c-1.416,0.196-2.807,0.172-4.174-0.072
				C1269.148,887.949,1268.026,887.875,1267.148,887.972z"/>
			<path style="fill:#FFFFFF;" d="M1299.945,949.321c0.878-2.049,1.708-4.624,2.488-7.724c0.781-3.098,1.562-6.502,2.342-10.212
				c0.781-3.71,1.612-7.589,2.49-11.64c0.878-4.052,1.817-8.04,2.818-11.969c1-3.929,2.11-7.662,3.332-11.201
				c1.22-3.539,2.586-6.65,4.1-9.334c1.512-2.684,3.195-4.82,5.05-6.406c1.855-1.585,3.929-2.379,6.223-2.379
				c1.319,0,2.623,0.793,3.917,2.379c1.293,1.587,2.562,3.71,3.807,6.369c1.245,2.661,2.49,5.748,3.733,9.262
				c1.245,3.514,2.477,7.2,3.697,11.054c1.22,3.856,2.44,7.785,3.661,11.786c1.22,4.003,2.427,7.81,3.623,11.421
				c1.196,3.612,2.391,6.932,3.587,9.956c1.195,3.028,2.404,5.491,3.623,7.394c0.39,1.319,0.342,2.477-0.146,3.478
				c-0.489,1-1.184,1.745-2.087,2.233c-0.903,0.489-1.939,0.646-3.111,0.477c-1.171-0.171-2.245-0.743-3.222-1.721
				c-1.171-1.805-2.245-3.733-3.221-5.782c-0.977-2.051-1.819-4.026-2.526-5.93c-0.709-1.904-1.281-3.624-1.72-5.162
				c-0.439-1.537-0.732-2.72-0.878-3.55c-2.441,0-4.784-0.013-7.029-0.038c-2.245-0.023-4.465-0.036-6.662-0.036
				s-4.404-0.011-6.624-0.038c-2.222-0.023-4.577-0.06-7.065-0.11c-0.586,2.247-1.038,4.21-1.355,5.894
				c-0.318,1.684-0.623,3.307-0.916,4.868c-0.292,1.563-0.658,3.173-1.098,4.832c-0.439,1.659-1.074,3.562-1.903,5.71
				c-0.878,1.074-1.892,1.731-3.039,1.976c-1.146,0.245-2.195,0.158-3.147-0.255c-0.952-0.416-1.722-1.11-2.306-2.087
				C1299.798,951.86,1299.652,950.689,1299.945,949.321z M1327.911,889.804c-0.684-0.194-1.367,0.245-2.049,1.317
				c-0.685,1.074-1.355,2.539-2.015,4.393c-0.659,1.855-1.306,3.978-1.939,6.369c-0.635,2.391-1.257,4.807-1.866,7.247
				c-0.611,2.441-1.185,4.771-1.722,6.991c-0.538,2.222-1.049,4.113-1.537,5.674c2.098,0.049,4.037,0.099,5.82,0.146
				c1.781,0.05,3.537,0.11,5.271,0.184c1.731,0.074,3.489,0.146,5.27,0.219c1.781,0.074,3.697,0.135,5.748,0.183
				c-1.171-2.879-2.161-5.674-2.965-8.382c-0.806-2.709-1.587-5.405-2.344-8.09c-0.756-2.683-1.573-5.368-2.452-8.053
				C1330.253,895.319,1329.179,892.585,1327.911,889.804z"/>
			<path style="fill:#FFFFFF;" d="M1391.748,952.983c-0.732,0.829-1.49,1.378-2.27,1.646c-0.781,0.268-1.526,0.329-2.233,0.183
				s-1.355-0.477-1.94-0.988c-0.586-0.513-1.097-1.135-1.538-1.867c-4.052-11.518-8.15-22.742-12.299-33.676
				c-4.149-10.933-8.418-22.036-12.811-33.31c-0.146-1.366,0.171-2.488,0.952-3.368c0.781-0.878,1.758-1.464,2.929-1.756
				c1.171-0.293,2.379-0.245,3.623,0.146c1.245,0.392,2.281,1.148,3.111,2.27c1.806,4.978,3.562,9.625,5.271,13.945
				c1.707,4.32,3.355,8.616,4.942,12.885c1.585,4.271,3.123,8.639,4.611,13.105c1.49,4.465,2.94,9.334,4.357,14.605
				c1.904-4.685,3.733-9.321,5.489-13.911c1.758-4.586,3.452-9.174,5.089-13.763c1.634-4.586,3.231-9.186,4.795-13.799
				c1.562-4.613,3.123-9.285,4.685-14.019c0.684-1.173,1.585-1.904,2.709-2.197c1.121-0.293,2.195-0.219,3.221,0.219
				c1.025,0.439,1.891,1.171,2.599,2.197c0.707,1.024,1.036,2.22,0.988,3.587c-1.61,5.709-3.44,11.383-5.491,17.02
				c-2.049,5.638-4.235,11.275-6.552,16.911c-2.319,5.637-4.685,11.275-7.101,16.911
				C1396.469,941.598,1394.091,947.272,1391.748,952.983z"/>
			<path style="fill:#FFFFFF;" d="M1424.985,949.321c0.878-2.049,1.708-4.624,2.488-7.724c0.781-3.098,1.562-6.502,2.342-10.212
				s1.612-7.589,2.49-11.64c0.878-4.052,1.817-8.04,2.818-11.969s2.11-7.662,3.332-11.201c1.22-3.539,2.585-6.65,4.1-9.334
				c1.511-2.684,3.195-4.82,5.05-6.406c1.855-1.585,3.929-2.379,6.223-2.379c1.319,0,2.623,0.793,3.917,2.379
				c1.294,1.587,2.562,3.71,3.807,6.369c1.245,2.661,2.49,5.748,3.733,9.262c1.245,3.514,2.477,7.2,3.697,11.054
				c1.22,3.856,2.44,7.785,3.661,11.786c1.22,4.003,2.427,7.81,3.624,11.421c1.196,3.612,2.391,6.932,3.587,9.956
				c1.195,3.028,2.404,5.491,3.623,7.394c0.39,1.319,0.342,2.477-0.146,3.478c-0.489,1-1.184,1.745-2.087,2.233
				c-0.903,0.489-1.94,0.646-3.111,0.477c-1.171-0.171-2.245-0.743-3.222-1.721c-1.171-1.805-2.245-3.733-3.22-5.782
				c-0.977-2.051-1.819-4.026-2.526-5.93c-0.709-1.904-1.281-3.624-1.72-5.162c-0.439-1.537-0.732-2.72-0.878-3.55
				c-2.441,0-4.784-0.013-7.029-0.038c-2.245-0.023-4.465-0.036-6.662-0.036c-2.197,0-4.404-0.011-6.624-0.038
				c-2.222-0.023-4.577-0.06-7.065-0.11c-0.586,2.247-1.038,4.21-1.355,5.894c-0.318,1.684-0.622,3.307-0.916,4.868
				c-0.292,1.563-0.659,3.173-1.098,4.832c-0.439,1.659-1.074,3.562-1.903,5.71c-0.878,1.074-1.892,1.731-3.039,1.976
				c-1.146,0.245-2.195,0.158-3.147-0.255c-0.952-0.416-1.722-1.11-2.306-2.087C1424.837,951.86,1424.692,950.689,1424.985,949.321z
				 M1452.95,889.804c-0.684-0.194-1.367,0.245-2.049,1.317c-0.685,1.074-1.355,2.539-2.015,4.393
				c-0.659,1.855-1.306,3.978-1.939,6.369c-0.635,2.391-1.258,4.807-1.866,7.247c-0.611,2.441-1.185,4.771-1.722,6.991
				c-0.538,2.222-1.049,4.113-1.537,5.674c2.098,0.049,4.037,0.099,5.82,0.146c1.781,0.05,3.537,0.11,5.271,0.184
				c1.731,0.074,3.489,0.146,5.27,0.219c1.781,0.074,3.697,0.135,5.748,0.183c-1.171-2.879-2.161-5.674-2.965-8.382
				c-0.806-2.709-1.587-5.405-2.344-8.09c-0.756-2.683-1.573-5.368-2.452-8.053C1455.293,895.319,1454.219,892.585,1452.95,889.804z
				"/>
		</g>
	</g>
	<g>
		<path style="fill:#FFFFFF;" d="M1282.514,745.488c-24.503,0-44.437-19.934-44.437-44.436V581.078
			c0-24.502,19.934-44.436,44.437-44.436h282.752c24.503,0,44.437,19.934,44.437,44.436v119.975
			c0,24.502-19.934,44.436-44.437,44.436H1282.514z"/>
		<path style="fill:#68A9FD;" d="M1565.266,725.606h-282.752c-13.561,0-24.554-10.993-24.554-24.554V581.078
			c0-13.561,10.993-24.554,24.554-24.554h282.752c13.561,0,24.554,10.993,24.554,24.554v119.974
			C1589.82,714.613,1578.827,725.606,1565.266,725.606z"/>
		<g>
			<path style="fill:#FFFFFF;" d="M1322.896,605.972c-0.121-1.813,0.195-3.293,0.952-4.442c0.754-1.148,1.677-1.905,2.765-2.267
				c1.087-0.363,2.221-0.317,3.4,0.136c1.179,0.453,2.13,1.405,2.855,2.856c1.813-1.39,4.352-2.387,7.615-2.992
				c3.264-0.604,6.83-0.784,10.698-0.544c3.867,0.242,7.81,0.951,11.83,2.13c4.019,1.178,7.675,2.901,10.97,5.168
				c3.293,2.267,6.012,5.092,8.159,8.476c2.145,3.386,3.277,7.404,3.4,12.058c0.12,5.682-0.635,10.73-2.267,15.14
				c-1.632,4.412-3.839,8.16-6.618,11.242c-2.78,3.082-5.983,5.53-9.609,7.343c-3.627,1.813-7.314,2.932-11.061,3.354
				c-3.748,0.423-7.434,0.151-11.061-0.815c-3.626-0.967-6.86-2.63-9.701-4.987c-0.121,2.6-0.151,5.093-0.09,7.48
				c0.059,2.388,0.12,4.745,0.181,7.071c0.059,2.328,0.12,4.685,0.181,7.071c0.06,2.388,0.06,4.881,0,7.479
				c-0.121,1.995-0.695,3.507-1.722,4.534c-1.028,1.028-2.176,1.555-3.445,1.586c-1.27,0.029-2.464-0.422-3.581-1.36
				c-1.119-0.936-1.799-2.371-2.04-4.307c0-7.252-0.016-14.324-0.046-21.214c-0.031-6.89-0.106-13.69-0.226-20.398
				c-0.122-6.709-0.304-13.357-0.545-19.946C1323.651,619.239,1323.318,612.621,1322.896,605.972z M1334.863,614.132
				c0.241,2.962,0.422,5.773,0.544,8.431c0.12,2.661,0.195,5.304,0.226,7.933c0.03,2.63,0.03,5.274,0,7.933
				c-0.031,2.661-0.076,5.472-0.136,8.432c0.846-0.12,1.813-0.03,2.902,0.272c1.813,1.754,3.928,2.946,6.345,3.581
				c2.417,0.635,4.88,0.815,7.389,0.544c2.508-0.272,4.986-0.966,7.435-2.085c2.448-1.117,4.623-2.583,6.527-4.397
				c1.904-1.813,3.446-3.928,4.624-6.346c1.179-2.416,1.768-5.076,1.768-7.977c0-3.082-0.666-5.816-1.995-8.204
				c-1.33-2.387-3.068-4.427-5.212-6.12c-2.146-1.691-4.578-3.006-7.299-3.943c-2.719-0.936-5.471-1.496-8.249-1.678
				c-2.781-0.18-5.472,0.032-8.069,0.635C1339.063,611.745,1336.796,612.742,1334.863,614.132z"/>
			<path style="fill:#FFFFFF;" d="M1449.003,602.618c0.363-1.691,1.117-2.976,2.267-3.853c1.147-0.875,2.402-1.328,3.762-1.359
				c1.36-0.03,2.644,0.349,3.853,1.133c1.208,0.786,2.054,1.994,2.539,3.626c1.631,14.385,2.765,28.619,3.399,42.701
				c0.635,14.083,0.983,28.376,1.043,42.882c-0.06,1.33-0.423,2.434-1.087,3.309c-0.666,0.878-1.496,1.527-2.493,1.949
				c-0.998,0.422-2.085,0.635-3.264,0.635s-2.282-0.227-3.31-0.68c-1.028-0.452-1.904-1.102-2.629-1.948
				c-0.725-0.846-1.179-1.934-1.359-3.264c-0.061-6.829,0.059-13.523,0.362-20.081c0.302-6.558,0.302-13.251,0-20.082
				c-0.303,0.122-0.635,0.243-0.997,0.363c-0.363,0.121-0.756,0.242-1.178,0.362c-3.385-0.059-6.649-0.211-9.791-0.453
				c-3.144-0.241-6.256-0.421-9.339-0.544c-3.082-0.12-6.18-0.09-9.293,0.09c-3.113,0.181-6.301,0.635-9.565,1.36l-0.907,36.263
				c-0.121,1.995-0.77,3.477-1.948,4.443c-1.179,0.968-2.479,1.45-3.899,1.45c-1.42,0-2.765-0.482-4.034-1.45
				c-1.27-0.966-2.026-2.416-2.267-4.351v-82.5c0.363-1.691,1.117-2.931,2.267-3.717c1.147-0.784,2.402-1.163,3.762-1.133
				c1.36,0.031,2.659,0.484,3.899,1.36c1.238,0.877,2.099,2.13,2.583,3.762l0.544,33.454c3.323-0.604,6.542-0.966,9.656-1.088
				c3.111-0.12,6.209-0.105,9.292,0.046c3.082,0.151,6.195,0.349,9.338,0.589c3.142,0.242,6.406,0.393,9.791,0.453
				c0.241,0.121,0.453,0.196,0.635,0.226c0.181,0.031,0.392,0.107,0.635,0.227c-0.363-5.984-0.681-11.68-0.952-17.089
				C1450.045,614.299,1449.606,608.601,1449.003,602.618z"/>
			<path style="fill:#FFFFFF;" d="M1479.101,605.972c-0.121-1.813,0.195-3.293,0.952-4.442c0.754-1.148,1.677-1.905,2.765-2.267
				c1.087-0.363,2.221-0.317,3.4,0.136c1.179,0.453,2.13,1.405,2.855,2.856c1.813-1.39,4.352-2.387,7.615-2.992
				c3.264-0.604,6.83-0.784,10.698-0.544c3.867,0.242,7.81,0.951,11.83,2.13c4.019,1.178,7.675,2.901,10.97,5.168
				c3.293,2.267,6.012,5.092,8.159,8.476c2.145,3.386,3.277,7.404,3.4,12.058c0.12,5.682-0.635,10.73-2.267,15.14
				c-1.632,4.412-3.839,8.16-6.618,11.242c-2.78,3.082-5.983,5.53-9.609,7.343c-3.627,1.813-7.314,2.932-11.061,3.354
				c-3.748,0.423-7.434,0.151-11.061-0.815c-3.626-0.967-6.86-2.63-9.701-4.987c-0.121,2.6-0.151,5.093-0.09,7.48
				c0.059,2.388,0.12,4.745,0.181,7.071c0.059,2.328,0.12,4.685,0.181,7.071c0.06,2.388,0.06,4.881,0,7.479
				c-0.121,1.995-0.695,3.507-1.722,4.534c-1.028,1.028-2.176,1.555-3.445,1.586c-1.27,0.029-2.464-0.422-3.581-1.36
				c-1.119-0.936-1.799-2.371-2.04-4.307c0-7.252-0.016-14.324-0.046-21.214c-0.031-6.89-0.106-13.69-0.226-20.398
				c-0.122-6.709-0.304-13.357-0.545-19.946C1479.856,619.239,1479.524,612.621,1479.101,605.972z M1491.069,614.132
				c0.241,2.962,0.422,5.773,0.544,8.431c0.12,2.661,0.195,5.304,0.226,7.933c0.03,2.63,0.03,5.274,0,7.933
				c-0.031,2.661-0.076,5.472-0.136,8.432c0.846-0.12,1.813-0.03,2.902,0.272c1.813,1.754,3.928,2.946,6.345,3.581
				c2.417,0.635,4.88,0.815,7.389,0.544c2.508-0.272,4.986-0.966,7.435-2.085c2.448-1.117,4.623-2.583,6.527-4.397
				c1.904-1.813,3.446-3.928,4.624-6.346c1.178-2.416,1.768-5.076,1.768-7.977c0-3.082-0.666-5.816-1.995-8.204
				c-1.33-2.387-3.068-4.427-5.212-6.12c-2.146-1.691-4.578-3.006-7.299-3.943c-2.719-0.936-5.471-1.496-8.249-1.678
				c-2.781-0.18-5.472,0.032-8.069,0.635C1495.268,611.745,1493.001,612.742,1491.069,614.132z"/>
		</g>
	</g>
	<g>
		<path style="fill:#FFFFFF;" d="M833.608,1037.949V935.244c0-19.742,16.004-35.746,35.746-35.746h211.624
			c19.742,0,35.746,16.004,35.746,35.746v102.704c0,19.742-16.004,35.746-35.746,35.746H869.352
			C849.611,1073.694,833.608,1057.69,833.608,1037.949z"/>
		<path style="fill:#68A9FD;" d="M1084.921,1056.278H864.826c-9.256,0-16.759-7.503-16.759-16.759V933.673
			c0-9.256,7.503-16.759,16.759-16.759h220.096c9.256,0,16.759,7.503,16.759,16.759v105.846
			C1101.68,1048.775,1094.177,1056.278,1084.921,1056.278z"/>
		<g>
			<path style="fill:#FFFFFF;" d="M928.003,948.209c-0.21-1.679,0.066-3.029,0.827-4.052c0.76-1.023,1.678-1.653,2.754-1.888
				c1.075-0.236,2.164-0.026,3.266,0.63c1.101,0.656,1.888,1.797,2.36,3.423c0.473,2.729,0.813,5.456,1.023,8.184
				c0.209,2.729,0.315,5.509,0.315,8.341c-0.106,1.732-0.669,3.069-1.692,4.014c-1.023,0.945-2.164,1.483-3.423,1.613
				c-1.259,0.131-2.44-0.169-3.541-0.905c-1.102-0.734-1.759-1.94-1.968-3.619v-0.63c-2.518-3.305-5.391-5.639-8.616-7.003
				c-3.227-1.364-6.531-1.928-9.915-1.692c-3.383,0.236-6.728,1.181-10.033,2.833c-3.305,1.652-6.295,3.816-8.971,6.492
				c-1.679,1.679-3.056,3.698-4.131,6.059c-1.076,2.361-1.889,4.866-2.44,7.515c-0.551,2.65-0.854,5.351-0.905,8.105
				c-0.053,2.754,0.091,5.404,0.432,7.947c0.341,2.546,0.866,4.892,1.574,7.043c0.709,2.152,1.561,3.909,2.557,5.272
				c1.521,2.151,3.423,3.934,5.705,5.351c2.282,1.417,4.734,2.479,7.358,3.187c2.622,0.708,5.337,1.076,8.144,1.101
				c2.805,0.028,5.534-0.275,8.184-0.904c2.648-0.63,5.101-1.587,7.357-2.873c2.255-1.285,4.17-2.898,5.744-4.839
				c0.734-0.945,1.259-2.006,1.574-3.187c0.314-1.18,0.708-2.321,1.18-3.423c0.839-1.468,1.77-2.4,2.793-2.793
				c1.023-0.394,1.954-0.367,2.794,0.078c0.839,0.447,1.534,1.272,2.085,2.479c0.551,1.207,0.8,2.675,0.747,4.406
				c-0.105,3.725-1.364,7.056-3.777,9.994c-2.413,2.938-5.522,5.364-9.325,7.279c-3.804,1.915-8.04,3.279-12.708,4.092
				c-4.67,0.812-9.325,0.944-13.968,0.394c-4.642-0.551-9.01-1.823-13.102-3.817c-4.092-1.993-7.45-4.851-10.072-8.577
				c-1.47-2.098-2.729-4.63-3.778-7.594c-1.05-2.963-1.823-6.163-2.321-9.6c-0.5-3.435-0.722-7.003-0.669-10.702
				c0.051-3.698,0.432-7.318,1.141-10.859c0.708-3.541,1.77-6.885,3.187-10.033c1.417-3.147,3.227-5.902,5.429-8.262
				c1.732-1.836,3.803-3.541,6.217-5.115c2.412-1.574,5.009-2.911,7.79-4.014c2.78-1.101,5.678-1.94,8.694-2.518
				c3.017-0.576,5.981-0.812,8.893-0.708c2.911,0.105,5.705,0.603,8.38,1.495c2.676,0.892,5.062,2.256,7.161,4.092
				c-0.053-0.315-0.106-0.616-0.158-0.905C928.107,948.827,928.055,948.524,928.003,948.209z"/>
			<path style="fill:#FFFFFF;" d="M1004.017,964.655c0.42,1.417,0.276,2.584-0.432,3.502c-0.709,0.919-1.679,1.534-2.911,1.849
				c-1.234,0.315-2.584,0.302-4.053-0.039c-1.469-0.341-2.728-1.036-3.777-2.086c-0.105-1.625-0.499-3.291-1.18-4.997
				c-0.683-1.704-1.6-3.238-2.754-4.603c-1.154-1.363-2.518-2.491-4.092-3.383c-1.574-0.892-3.253-1.311-5.036-1.259
				c-2.466,0.105-4.669,0.747-6.61,1.927c-1.942,1.18-3.463,2.729-4.564,4.643c-1.101,1.915-1.731,4.079-1.888,6.492
				c-0.158,2.413,0.34,4.879,1.495,7.397c0.42,0.998,1.561,1.759,3.423,2.282c1.861,0.525,4.078,1.09,6.649,1.692
				c2.57,0.603,5.324,1.352,8.262,2.242c2.938,0.893,5.731,2.204,8.381,3.935c2.648,1.731,4.957,4.001,6.924,6.806
				c1.968,2.807,3.291,6.414,3.974,10.82c0.524,3.726,0.17,7.004-1.062,9.836c-1.234,2.833-3.057,5.233-5.47,7.2
				c-2.413,1.967-5.246,3.49-8.498,4.564c-3.253,1.076-6.637,1.679-10.151,1.81c-3.516,0.131-6.978-0.209-10.387-1.023
				c-3.411-0.813-6.466-2.111-9.167-3.896c-2.702-1.782-4.892-4.078-6.571-6.885c-1.679-2.805-2.545-6.124-2.596-9.954
				c0-1.048,0.051-2.058,0.158-3.029c0.104-0.97,0.34-1.849,0.708-2.636c0.367-0.787,0.891-1.456,1.574-2.006
				c0.681-0.551,1.599-0.905,2.754-1.063c1.049-0.051,1.941,0.131,2.675,0.551c0.734,0.42,1.325,0.983,1.77,1.691
				c0.445,0.709,0.734,1.548,0.865,2.519c0.131,0.971,0.144,2.006,0.04,3.108c-0.263,2.309,0.065,4.289,0.983,5.942
				c0.918,1.652,2.164,3.017,3.738,4.092s3.357,1.862,5.351,2.36c1.993,0.5,3.934,0.696,5.824,0.59
				c1.888-0.104,3.803-0.379,5.744-0.826c1.94-0.445,3.698-1.154,5.272-2.124c1.574-0.971,2.833-2.243,3.778-3.816
				c0.944-1.574,1.31-3.542,1.101-5.902c-0.106-1.259-0.46-2.57-1.063-3.934c-0.603-1.364-1.404-2.637-2.4-3.816
				c-0.997-1.181-2.124-2.243-3.383-3.187c-1.26-0.945-2.597-1.625-4.013-2.046c-2.099-0.63-4.276-1.232-6.531-1.81
				c-2.256-0.577-4.446-1.232-6.57-1.968c-2.125-0.734-4.132-1.599-6.02-2.596c-1.888-0.996-3.554-2.23-4.997-3.698
				c-1.443-1.469-2.584-3.239-3.423-5.312c-0.84-2.071-1.286-4.55-1.338-7.436c-0.052-3.514,0.591-6.688,1.928-9.521
				c1.338-2.833,3.109-5.246,5.312-7.239c2.203-1.993,4.668-3.527,7.397-4.603c2.727-1.074,5.429-1.613,8.105-1.613
				c3.671,0,7.029,0.472,10.072,1.416c3.042,0.945,5.717,2.31,8.026,4.092c2.308,1.785,4.196,3.949,5.666,6.492
				C1002.495,958.742,1003.492,961.561,1004.017,964.655z"/>
			<path style="fill:#FFFFFF;" d="M1063.271,964.655c0.42,1.417,0.276,2.584-0.432,3.502c-0.709,0.919-1.679,1.534-2.911,1.849
				c-1.234,0.315-2.584,0.302-4.053-0.039c-1.469-0.341-2.728-1.036-3.777-2.086c-0.105-1.625-0.499-3.291-1.181-4.997
				c-0.682-1.704-1.6-3.238-2.754-4.603c-1.154-1.363-2.518-2.491-4.092-3.383c-1.574-0.892-3.253-1.311-5.036-1.259
				c-2.466,0.105-4.669,0.747-6.61,1.927c-1.942,1.18-3.462,2.729-4.564,4.643c-1.101,1.915-1.731,4.079-1.888,6.492
				c-0.158,2.413,0.341,4.879,1.495,7.397c0.42,0.998,1.561,1.759,3.423,2.282c1.861,0.525,4.078,1.09,6.649,1.692
				c2.57,0.603,5.324,1.352,8.262,2.242c2.938,0.893,5.731,2.204,8.381,3.935c2.649,1.731,4.957,4.001,6.924,6.806
				c1.968,2.807,3.291,6.414,3.974,10.82c0.524,3.726,0.17,7.004-1.062,9.836c-1.234,2.833-3.057,5.233-5.47,7.2
				c-2.413,1.967-5.246,3.49-8.498,4.564c-3.254,1.076-6.637,1.679-10.151,1.81c-3.516,0.131-6.978-0.209-10.387-1.023
				c-3.411-0.813-6.466-2.111-9.167-3.896c-2.702-1.782-4.892-4.078-6.571-6.885c-1.679-2.805-2.545-6.124-2.596-9.954
				c0-1.048,0.051-2.058,0.158-3.029c0.104-0.97,0.34-1.849,0.708-2.636c0.367-0.787,0.891-1.456,1.574-2.006
				c0.681-0.551,1.599-0.905,2.754-1.063c1.049-0.051,1.941,0.131,2.675,0.551c0.734,0.42,1.325,0.983,1.77,1.691
				c0.445,0.709,0.734,1.548,0.865,2.519c0.131,0.971,0.144,2.006,0.04,3.108c-0.263,2.309,0.065,4.289,0.983,5.942
				c0.918,1.652,2.164,3.017,3.738,4.092s3.357,1.862,5.351,2.36c1.993,0.5,3.934,0.696,5.824,0.59
				c1.888-0.104,3.803-0.379,5.744-0.826c1.94-0.445,3.698-1.154,5.272-2.124c1.574-0.971,2.833-2.243,3.778-3.816
				c0.944-1.574,1.31-3.542,1.101-5.902c-0.106-1.259-0.46-2.57-1.063-3.934c-0.603-1.364-1.404-2.637-2.4-3.816
				c-0.997-1.181-2.124-2.243-3.383-3.187c-1.26-0.945-2.597-1.625-4.014-2.046c-2.099-0.63-4.276-1.232-6.531-1.81
				c-2.256-0.577-4.446-1.232-6.57-1.968c-2.125-0.734-4.132-1.599-6.02-2.596c-1.888-0.996-3.554-2.23-4.997-3.698
				c-1.443-1.469-2.584-3.239-3.423-5.312c-0.84-2.071-1.286-4.55-1.338-7.436c-0.052-3.514,0.591-6.688,1.928-9.521
				c1.338-2.833,3.109-5.246,5.312-7.239c2.203-1.993,4.668-3.527,7.397-4.603c2.727-1.074,5.429-1.613,8.105-1.613
				c3.671,0,7.029,0.472,10.072,1.416c3.042,0.945,5.717,2.31,8.026,4.092c2.308,1.785,4.196,3.949,5.666,6.492
				C1061.749,958.742,1062.746,961.561,1063.271,964.655z"/>
		</g>
	</g>
</g>
<g>
	<path style="fill:#6880E4;" d="M2064.067,383.125c16.757-9.146,289.914-54.935,295.445-23.931c0,0,32.937,173.879,16.419,179.889
		c-10.387,3.779-123.18,19.044-208.454,25.786c-17.746,27.726-39.769,56.182-46.392,59.865c-7.2,4.005-3.123-27.044,2.298-57.108
		c-28.413,1.151-48.401,0.309-51.424-3.845C2060.042,547.405,2047.309,392.271,2064.067,383.125z"/>
	<g>
		
			<ellipse transform="matrix(0.8194 -0.5732 0.5732 0.8194 158.8462 1401.918)" style="fill:#FFFFFF;" cx="2304.5" cy="448.844" rx="15.491" ry="15.491"/>
		<path style="fill:#FFFFFF;" d="M2207.794,461.247c2.423,8.205,11.038,12.892,19.243,10.47c8.205-2.423,12.892-11.038,10.47-19.243
			c-2.423-8.205-11.038-12.893-19.243-10.47C2210.059,444.427,2205.371,453.042,2207.794,461.247z"/>
		<path style="fill:#FFFFFF;" d="M2122.985,470.138c2.423,8.205,11.038,12.892,19.243,10.47s12.893-11.038,10.47-19.243
			c-2.423-8.205-11.038-12.892-19.243-10.47C2125.25,453.317,2120.563,461.933,2122.985,470.138z"/>
	</g>
</g>
<path style="fill:#F6F9FF;" d="M595.534,827.719h-52.252c-1.898,0-3.436-1.538-3.436-3.436v-14.815c0-1.897,1.538-3.436,3.436-3.436
	h52.252c1.898,0,3.436,1.538,3.436,3.436v14.815C598.969,826.18,597.431,827.719,595.534,827.719z"/>
</svg>
